<svg viewBox="0 0 512 512" xmlns="http://www.w3.org/2000/svg"><path d="M0 192C0 124.794 0 91.19 13.08 65.521A120 120 0 0165.52 13.08C91.191 0 124.794 0 192 0h128c67.206 0 100.809 0 126.479 13.08a120.004 120.004 0 0152.442 52.441C512 91.191 512 124.794 512 192v128c0 67.206 0 100.809-13.079 126.479a120.007 120.007 0 01-52.442 52.442C420.809 512 387.206 512 320 512H192c-67.206 0-100.81 0-126.479-13.079a120.004 120.004 0 01-52.442-52.442C0 420.809 0 387.206 0 320V192z"/><path d="M445.867 285.099v-78.166h-19.514v19.542H256v78.165h19.514v-19.541h170.353z" fill="#fff"/></svg>